ply
format ascii 1.0
comment Created by Blender 2.79 (sub 0) - www.blender.org, source file: ''
element vertex 286
property float x
property float y
property float z
property float nx
property float ny
property float nz
property float s
property float t
element face 432
property list uchar uint vertex_indices
end_header
1.000000 0.623062 0.898233 0.971191 0.000000 0.238166 0.396156 0.016961
1.000000 0.910365 0.618835 0.964446 0.264260 0.000000 0.348273 0.063528
1.000000 0.910365 0.898233 0.942137 0.249641 0.223640 0.348273 0.016961
0.960166 0.977591 0.898233 0.563982 0.796411 0.218177 0.333333 0.016961
0.960166 0.910365 0.974558 0.586352 0.256783 0.768242 0.348273 0.000000
-0.859432 0.910365 1.000000 -0.126682 0.186956 0.974151 0.309905 0.014939
-0.578981 0.623062 1.000000 0.000000 0.000000 0.999969 0.263164 0.062823
-0.578981 0.910365 1.000000 0.000000 0.179907 0.983673 0.263164 0.014939
-0.578981 0.977591 0.974558 0.000000 0.733512 0.679647 0.263164 0.000000
-0.859432 0.977591 0.974558 -0.154576 0.722160 0.674184 0.309905 0.000000
-0.937525 0.960162 0.954770 -0.436018 0.670827 0.599841 0.333333 0.000000
-0.964858 0.910365 0.974558 -0.621876 0.267953 0.735801 0.333333 0.014939
-0.859432 0.623062 1.000000 -0.118107 0.000000 0.992981 0.309905 0.062823
-1.000000 0.623062 -0.914060 -0.968993 0.000000 -0.246986 0.347657 0.603844
-1.000000 0.910365 -0.646531 -0.971129 0.238502 0.000000 0.392245 0.651727
-1.000000 0.910365 -0.914060 -0.939238 0.238533 -0.246834 0.347657 0.651727
-0.964858 0.977591 -0.914060 -0.597247 0.757225 -0.264260 0.347657 0.666667
-0.937525 0.960162 -0.961804 -0.406598 0.634053 -0.657735 0.333333 0.666667
-0.964858 0.910365 -0.978515 -0.590228 0.252266 -0.766778 0.333333 0.651727
-0.964858 0.623062 -0.978515 -0.594226 0.000000 -0.804254 0.333333 0.603844
0.840666 0.623062 -1.000000 0.088809 0.000000 -0.996033 0.306778 0.396156
0.546141 0.910365 -1.000000 0.000000 0.154027 -0.988037 0.257690 0.348273
0.840666 0.910365 -1.000000 0.097262 0.160924 -0.982147 0.306778 0.348273
0.840666 0.977591 -0.978515 0.127964 0.693136 -0.709342 0.306778 0.333333
0.929185 0.960162 -0.961804 0.322947 0.657430 -0.680746 0.333333 0.333333
0.960166 0.910365 -0.978515 0.552293 0.237281 -0.799127 0.333333 0.348273
-0.578981 -1.000000 -0.914060 0.000000 -0.998291 -0.057985 0.070170 0.680990
-0.859432 -1.000000 -0.646531 -0.035554 -0.999359 0.000000 0.023428 0.725578
-0.859432 -1.000000 -0.914060 -0.039979 -0.997284 -0.061830 0.023428 0.680990
-0.964858 -0.992485 -0.914060 -0.328898 -0.936155 -0.124058 0.000000 0.680990
-0.937525 -0.986640 -0.961804 -0.176855 -0.910367 -0.374065 0.000000 0.668995
-0.859432 -0.992485 -0.978515 -0.081423 -0.884823 -0.458724 0.023428 0.668995
-0.578981 -0.992485 -0.978515 0.000000 -0.894803 -0.446394 0.070170 0.668995
0.546141 1.000000 -0.914060 0.000000 0.986023 -0.166509 0.742310 0.014323
0.840666 1.000000 -0.646531 0.092532 0.995697 0.000000 0.693222 0.058911
0.840666 1.000000 -0.914060 0.101047 0.979675 -0.173254 0.693222 0.014323
0.960166 0.977591 -0.914060 0.559954 0.789758 -0.250343 0.666667 0.014323
0.929185 0.960162 -0.961804 0.322947 0.657430 -0.680746 0.666667 0.000000
0.840666 0.977591 -0.978515 0.127964 0.693136 -0.709342 0.693222 0.000000
0.546141 0.977591 -0.978515 0.000000 0.698111 -0.715964 0.742310 0.000000
0.546141 1.000000 -0.015827 0.000000 1.000000 0.000000 0.742310 0.164029
0.840666 1.000000 0.618835 0.092532 0.995697 0.000000 0.693222 0.269806
0.840666 1.000000 -0.015827 0.092532 0.995697 0.000000 0.693222 0.164029
0.960166 0.977591 -0.015827 0.573382 0.819269 0.000000 0.666667 0.164029
-0.859432 -1.000000 -0.015827 -0.035554 -0.999359 0.000000 0.023428 0.830696
-0.578981 -1.000000 0.618835 0.000000 -1.000000 0.000000 0.070170 0.936472
-0.859432 -1.000000 0.618835 -0.035554 -0.999359 0.000000 0.023428 0.936473
-0.964858 -0.992485 -0.015827 -0.315287 -0.948973 0.000000 0.000000 0.830696
-0.578981 -1.000000 -0.646531 0.000000 -0.999969 0.000000 0.070170 0.725578
-0.578981 -1.000000 -0.015827 0.000000 -1.000000 0.000000 0.070170 0.830696
-1.000000 0.623062 -0.015827 -1.000000 0.000000 0.000000 0.497362 0.603844
-1.000000 0.910365 0.618835 -0.971129 0.238502 0.000000 0.603139 0.651727
-1.000000 0.910365 -0.015827 -0.971129 0.238502 0.000000 0.497362 0.651727
-0.964858 0.977591 -0.015827 -0.604602 0.796503 0.000000 0.497362 0.666667
1.000000 0.910365 -0.914060 0.934629 0.246895 -0.255837 0.348273 0.319010
0.960166 0.623062 -0.978515 0.562609 0.000000 -0.826685 0.396156 0.333333
0.960166 0.910365 -0.978515 0.552293 0.237281 -0.799127 0.348273 0.333333
0.960166 0.977591 -0.914060 0.559954 0.789758 -0.250343 0.333333 0.319010
1.000000 0.910365 -0.646531 0.964446 0.264260 0.000000 0.348273 0.274422
1.000000 0.623062 -0.914060 0.961913 0.000000 -0.273232 0.396156 0.319010
-1.000000 0.623062 0.898233 -0.976806 0.000000 0.214057 0.649706 0.603844
-0.964858 0.910365 0.974558 -0.621876 0.267953 0.735801 0.666667 0.651727
-1.000000 0.910365 0.898233 -0.946165 0.240455 0.216590 0.649706 0.651727
-0.937525 0.960162 0.954770 -0.436018 0.670827 0.599841 0.666667 0.666667
-0.964858 0.977591 0.898233 -0.601367 0.764397 0.232398 0.649706 0.666667
-0.859432 -1.000000 0.898233 -0.039674 -0.997803 0.052797 0.023428 0.983039
-0.578981 -0.992485 0.974558 0.000000 -0.916471 0.400067 0.070170 1.000000
-0.859432 -0.992485 0.974558 -0.086184 -0.905728 0.414930 0.023428 1.000000
-0.937525 -0.986640 0.954770 -0.186193 -0.927732 0.323435 0.000000 1.000000
-0.964858 -0.992485 0.898233 -0.327769 -0.938932 0.104617 0.000000 0.983039
-0.578981 -1.000000 0.898233 0.000000 -0.998779 0.049043 0.070170 0.983039
0.546141 1.000000 0.898233 0.000000 0.989807 0.142277 0.742310 0.316372
0.840666 0.977591 0.974558 0.138157 0.724143 0.675619 0.693222 0.333333
0.840666 1.000000 0.898233 0.101047 0.983551 0.149541 0.693222 0.316372
0.929185 0.960162 0.954770 0.350444 0.696371 0.626270 0.666667 0.333333
0.960166 0.977591 0.898233 0.563982 0.796411 0.218177 0.666667 0.316372
1.000000 0.623062 -0.015827 1.000000 0.000000 0.000000 0.396156 0.169304
1.000000 0.910365 -0.015827 0.964446 0.264260 0.000000 0.348273 0.169304
0.960166 0.977591 -0.015827 0.573382 0.819269 0.000000 0.333333 0.169304
-0.578981 1.000000 0.898233 0.000000 0.989807 0.142277 0.929830 0.316372
-0.018766 0.977591 0.974558 0.000000 0.733512 0.679647 0.836461 0.333333
-0.018766 1.000000 0.898233 0.000000 0.989807 0.142277 0.836461 0.316372
-0.018766 1.000000 0.618835 0.000000 1.000000 0.000000 0.836461 0.269806
0.840666 -1.000000 0.898233 0.035249 -0.997986 0.052461 0.306778 0.983039
0.929185 -0.986640 0.954770 0.161046 -0.931059 0.327372 0.333333 1.000000
0.840666 -0.992485 0.974558 0.076022 -0.907254 0.413587 0.306778 1.000000
0.546141 -1.000000 0.898233 0.000000 -0.998779 0.049043 0.257690 0.983039
0.546141 -1.000000 0.618835 0.000000 -0.999969 0.000000 0.257690 0.936472
0.840666 -1.000000 0.618835 0.031373 -0.999481 0.000000 0.306778 0.936472
0.960166 -0.992485 0.898233 0.298471 -0.948332 0.107578 0.333333 0.983039
0.960166 -0.992485 -0.015827 0.284890 -0.958525 0.000000 0.333333 0.830696
0.840666 -1.000000 -0.015827 0.031373 -0.999481 0.000000 0.306778 0.830696
0.546141 -1.000000 -0.015827 0.000000 -1.000000 0.000000 0.257690 0.830696
0.840666 -1.000000 -0.646531 0.031373 -0.999481 0.000000 0.306778 0.725578
-0.578981 1.000000 -0.015827 0.000000 0.999969 0.000000 0.929830 0.164029
-0.018766 1.000000 -0.015827 0.000000 1.000000 0.000000 0.836461 0.164029
-0.018766 1.000000 -0.646531 0.000000 1.000000 0.000000 0.836461 0.058911
-0.578981 1.000000 -0.914060 0.000000 0.986023 -0.166509 0.929830 0.014323
-0.018766 1.000000 -0.914060 0.000000 0.986023 -0.166509 0.836461 0.014323
-0.018766 0.977591 -0.978515 0.000000 0.698111 -0.715964 0.836461 0.000000
0.960166 -0.992485 -0.914060 0.299631 -0.945463 -0.127659 0.333333 0.680990
0.840666 -1.000000 -0.914060 0.035493 -0.997467 -0.061464 0.306778 0.680990
0.546141 -1.000000 -0.914060 0.000000 -0.998291 -0.057985 0.257690 0.680990
0.546141 -0.992485 -0.978515 0.000000 -0.894803 -0.446394 0.257690 0.668995
0.840666 -0.992485 -0.978515 0.071902 -0.886227 -0.457595 0.306778 0.668995
0.929185 -0.986640 -0.961804 0.152562 -0.913236 -0.377758 0.333333 0.668995
-0.018766 0.623062 -1.000000 0.000000 0.000000 -1.000000 0.163539 0.396156
-0.578981 0.910365 -1.000000 0.000000 0.154027 -0.988037 0.070170 0.348273
-0.018766 0.910365 -1.000000 0.000000 0.154027 -0.988037 0.163539 0.348273
-0.018766 0.977591 -0.978515 0.000000 0.698111 -0.715964 0.163539 0.333333
0.840666 0.910365 1.000000 0.113224 0.186682 0.975860 0.026556 0.014939
0.960166 0.623062 0.974558 0.604999 0.000000 0.796197 0.000000 0.062823
0.960166 0.910365 0.974558 0.586352 0.256783 0.768242 0.000000 0.014939
0.929185 0.960162 0.954770 0.350444 0.696371 0.626270 0.000000 0.000000
0.840666 0.977591 0.974558 0.138157 0.724143 0.675619 0.026556 0.000000
0.546141 0.977591 0.974558 0.000000 0.733512 0.679647 0.075643 0.000000
0.546141 0.910365 1.000000 0.000000 0.179907 0.983673 0.075643 0.014939
0.840666 0.623062 1.000000 0.104678 0.000000 0.994476 0.026556 0.062823
-0.859432 0.623062 -1.000000 -0.100345 0.000000 -0.994934 0.023428 0.396156
-0.964858 0.910365 -0.978515 -0.590228 0.252266 -0.766778 0.000000 0.348273
-0.859432 0.910365 -1.000000 -0.108982 0.161351 -0.980834 0.023428 0.348273
-0.937525 0.960162 -0.961804 -0.406598 0.634053 -0.657735 0.000000 0.333333
-0.859432 0.977591 -0.978515 -0.143376 0.691733 -0.707755 0.023428 0.333333
-0.964858 0.977591 -0.914060 -0.597247 0.757225 -0.264260 1.000000 0.014323
-0.859432 1.000000 -0.646531 -0.104526 0.994507 0.000000 0.976572 0.058911
-0.859432 1.000000 -0.914060 -0.113193 0.978271 -0.173650 0.976572 0.014323
-0.578981 0.977591 -0.978515 0.000000 0.698111 -0.715964 0.929830 0.000000
-0.859432 0.977591 -0.978515 -0.143376 0.691733 -0.707755 0.976572 0.000000
-0.937525 0.960162 -0.961804 -0.406598 0.634053 -0.657735 1.000000 0.000000
-0.964858 0.977591 -0.015827 -0.604602 0.796503 0.000000 1.000000 0.164029
-0.859432 1.000000 0.618835 -0.104526 0.994507 0.000000 0.976572 0.269806
-0.859432 1.000000 -0.015827 -0.104526 0.994507 0.000000 0.976572 0.164029
-0.859432 1.000000 0.898233 -0.113163 0.982177 0.149998 0.976572 0.316372
-0.937525 0.960162 0.954770 -0.436018 0.670827 0.599841 1.000000 0.333333
-0.859432 0.977591 0.974558 -0.154576 0.722160 0.674184 0.976572 0.333333
-0.964858 0.977591 0.898233 -0.601367 0.764397 0.232398 1.000000 0.316372
-0.018766 -0.992485 0.974558 0.000000 -0.916471 0.400067 0.163539 1.000000
-0.018766 -1.000000 0.898233 0.000000 -0.998779 0.049043 0.163539 0.983039
-0.018766 -1.000000 0.618835 0.000000 -0.999969 0.000000 0.163539 0.936473
-0.018766 -1.000000 -0.015827 0.000000 -1.000000 0.000000 0.163539 0.830696
-0.018766 -1.000000 -0.646531 0.000000 -1.000000 0.000000 0.163539 0.725578
-0.018766 -1.000000 -0.914060 0.000000 -0.998291 -0.057985 0.163539 0.680990
-0.018766 -0.992485 -0.978515 0.000000 -0.894803 -0.446394 0.163539 0.668995
-0.018766 0.623062 1.000000 0.000000 0.000000 0.999969 0.169794 0.062823
-0.018766 0.910365 1.000000 0.000000 0.179907 0.983673 0.169794 0.014939
-0.018766 0.977591 0.974558 0.000000 0.733512 0.679647 0.169794 0.000000
-0.018766 -0.727320 1.000000 0.000000 0.000000 1.000000 0.169794 0.287887
0.546141 -0.059576 1.000000 0.000000 0.000000 1.000000 0.075643 0.176596
-0.018766 -0.059576 1.000000 0.000000 0.000000 1.000000 0.169794 0.176596
-0.578981 -0.059576 1.000000 0.000000 0.000000 1.000000 0.263164 0.176596
-0.859432 -0.727320 -1.000000 -0.100345 0.000000 -0.994934 0.023428 0.621220
-0.964858 -0.059576 -0.978515 -0.594226 0.000000 -0.804254 0.000000 0.509929
-0.859432 -0.059576 -1.000000 -0.100345 0.000000 -0.994934 0.023428 0.509929
-0.578981 0.623062 -1.000000 0.000000 0.000000 -1.000000 0.070170 0.396156
-0.578981 -0.059576 -1.000000 0.000000 0.000000 -1.000000 0.070170 0.509929
0.840666 -0.727320 1.000000 0.104678 0.000000 0.994476 0.026556 0.287887
0.960166 -0.059576 0.974558 0.604999 0.000000 0.796197 0.000000 0.176596
0.840666 -0.059576 1.000000 0.104678 0.000000 0.994476 0.026556 0.176596
0.546141 -0.727320 1.000000 0.000000 0.000000 1.000000 0.075643 0.287887
-0.018766 -0.727320 -1.000000 0.000000 0.000000 -1.000000 0.163539 0.621220
-0.018766 -0.059576 -1.000000 0.000000 0.000000 -1.000000 0.163539 0.509929
0.546141 -0.059576 -1.000000 0.000000 0.000000 -1.000000 0.257690 0.509929
1.000000 -0.727320 -0.015827 1.000000 0.000000 0.000000 0.621220 0.169304
1.000000 -0.059576 -0.646531 1.000000 0.000000 0.000000 0.509929 0.274422
1.000000 -0.059576 -0.015827 1.000000 0.000000 0.000000 0.509929 0.169304
1.000000 -0.059576 0.618835 1.000000 0.000000 0.000000 0.509929 0.063528
-1.000000 -0.727320 0.898233 -0.976806 0.000000 0.214057 0.649706 0.378780
-0.964858 -0.059576 0.974558 -0.635029 0.000000 0.772485 0.666667 0.490071
-1.000000 -0.059576 0.898233 -0.976806 0.000000 0.214057 0.649706 0.490071
-1.000000 -0.059576 0.618835 -1.000000 0.000000 0.000000 0.603139 0.490071
1.000000 -0.059576 -0.914060 0.961913 0.000000 -0.273232 0.509929 0.319010
0.960166 -0.727320 -0.978515 0.562609 0.000000 -0.826685 0.621220 0.333333
0.960166 -0.059576 -0.978515 0.562609 0.000000 -0.826685 0.509929 0.333333
1.000000 -0.727320 -0.914060 0.961913 0.000000 -0.273232 0.621220 0.319010
-1.000000 -0.727320 -0.015827 -1.000000 0.000000 0.000000 0.497362 0.378780
-1.000000 -0.059576 -0.015827 -1.000000 0.000000 0.000000 0.497362 0.490071
-1.000000 -0.059576 -0.646531 -1.000000 0.000000 0.000000 0.392245 0.490071
0.840666 -0.727320 -1.000000 0.088809 0.000000 -0.996033 0.306778 0.621220
0.840666 -0.059576 -1.000000 0.088809 0.000000 -0.996033 0.306778 0.509929
0.960166 -0.059576 -0.978515 0.562609 0.000000 -0.826685 0.333333 0.509929
-1.000000 -0.727320 -0.914060 -0.968993 0.000000 -0.246986 0.347657 0.378780
-1.000000 -0.059576 -0.914060 -0.968993 0.000000 -0.246986 0.347657 0.490071
-0.964858 -0.059576 -0.978515 -0.594226 0.000000 -0.804254 0.333333 0.490071
-0.859432 -0.727320 1.000000 -0.118107 0.000000 0.992981 0.309905 0.287887
-0.859432 -0.059576 1.000000 -0.118107 0.000000 0.992981 0.309905 0.176596
-0.964858 -0.059576 0.974558 -0.635029 0.000000 0.772485 0.333333 0.176596
1.000000 -0.059576 0.898233 0.971191 0.000000 0.238166 0.509929 0.016961
1.000000 -0.727320 0.618835 1.000000 0.000000 0.000000 0.621220 0.063528
0.960166 -0.059576 0.974558 0.604999 0.000000 0.796197 0.509929 0.000000
1.000000 -0.727320 0.898233 0.971191 0.000000 0.238166 0.621220 0.016961
0.960166 -0.992485 0.898233 0.298471 -0.948332 0.107578 0.666667 0.016961
1.000000 -0.969941 0.618835 0.863857 -0.503708 0.000000 0.661657 0.063528
1.000000 -0.969941 0.898233 0.859340 -0.469222 0.203314 0.661657 0.016961
0.960166 -0.969941 0.974558 0.538377 -0.463515 0.703726 0.661657 0.000000
-0.859432 -0.969941 1.000000 -0.116611 -0.404797 0.906919 0.309905 0.328323
-0.578981 -0.992485 0.974558 0.000000 -0.916471 0.400067 0.263164 0.333333
-0.578981 -0.969941 1.000000 0.000000 -0.410352 0.911893 0.263164 0.328323
-0.964858 -0.969941 0.974558 -0.565325 -0.454512 0.688284 0.333333 0.328323
-0.937525 -0.986640 0.954770 -0.186193 -0.927732 0.323435 0.333333 0.333333
-0.859432 -0.992485 0.974558 -0.086184 -0.905728 0.414930 0.309905 0.333333
-0.964858 -0.992485 -0.914060 -0.328898 -0.936155 -0.124058 0.347657 0.333333
-1.000000 -0.969941 -0.646531 -0.877468 -0.479598 0.000000 0.392245 0.338343
-1.000000 -0.969941 -0.914060 -0.869289 -0.445936 -0.213202 0.347657 0.338343
-0.964858 -0.727320 -0.978515 -0.594226 0.000000 -0.804254 0.333333 0.378780
-0.964858 -0.969941 -0.978515 -0.536882 -0.440352 -0.719565 0.333333 0.338343
0.546141 -0.969941 -1.000000 0.000000 -0.371532 -0.928404 0.257690 0.661657
0.840666 -0.969941 -1.000000 0.091067 -0.369945 -0.924558 0.306778 0.661657
0.960166 -0.969941 -0.978515 0.508316 -0.450148 -0.734123 0.333333 0.661657
-0.964858 -0.992485 -0.015827 -0.315287 -0.948973 0.000000 0.497362 0.333333
-1.000000 -0.969941 0.618835 -0.877468 -0.479598 0.000000 0.603139 0.338343
-1.000000 -0.969941 -0.015827 -0.877468 -0.479598 0.000000 0.497362 0.338343
0.960166 -0.992485 -0.914060 0.299631 -0.945463 -0.127659 0.666667 0.319010
0.960166 -0.969941 -0.978515 0.508316 -0.450148 -0.734123 0.661657 0.333333
1.000000 -0.969941 -0.914060 0.854549 -0.464064 -0.233100 0.661657 0.319010
1.000000 -0.969941 -0.646531 0.863857 -0.503708 0.000000 0.661657 0.274422
-0.964858 -0.992485 0.898233 -0.327769 -0.938932 0.104617 0.649706 0.333333
-0.964858 -0.969941 0.974558 -0.565325 -0.454512 0.688284 0.666667 0.338343
-1.000000 -0.969941 0.898233 -0.873348 -0.450545 0.185003 0.649706 0.338343
0.960166 -0.992485 -0.015827 0.284890 -0.958525 0.000000 0.666667 0.169304
1.000000 -0.969941 -0.015827 0.863857 -0.503708 0.000000 0.661657 0.169304
-0.578981 -0.969941 -1.000000 0.000000 -0.371532 -0.928404 0.070170 0.661657
-0.018766 -0.969941 -1.000000 0.000000 -0.371532 -0.928404 0.163539 0.661657
0.840666 -0.969941 1.000000 0.104068 -0.405744 0.908017 0.026556 0.328324
0.929185 -0.986640 0.954770 0.161046 -0.931059 0.327372 0.000000 0.333333
0.960166 -0.969941 0.974558 0.538377 -0.463515 0.703726 0.000000 0.328324
0.546141 -0.969941 1.000000 0.000000 -0.410352 0.911893 0.075643 0.328323
0.546141 -0.992485 0.974558 0.000000 -0.916471 0.400067 0.075643 0.333333
0.840666 -0.992485 0.974558 0.076022 -0.907254 0.413587 0.026556 0.333333
-0.859432 -0.969941 -1.000000 -0.102206 -0.369457 -0.923582 0.023428 0.661657
-0.964858 -0.969941 -0.978515 -0.536882 -0.440352 -0.719565 0.000000 0.661657
-0.018766 -0.992485 0.974558 0.000000 -0.916471 0.400067 0.169794 0.333333
-0.018766 -0.969941 1.000000 0.000000 -0.410352 0.911893 0.169794 0.328323
1.000000 0.623062 0.618835 1.000000 0.000000 0.000000 0.396156 0.063528
0.960166 0.977591 0.618835 0.573382 0.819269 0.000000 0.333333 0.063528
0.929185 0.960162 0.954770 0.350444 0.696371 0.626270 0.333333 0.000000
0.960166 0.623062 0.974558 0.604999 0.000000 0.796197 0.396156 0.000000
-0.964858 0.623062 0.974558 -0.635029 0.000000 0.772485 0.333333 0.062823
-1.000000 0.623062 -0.646531 -1.000000 0.000000 0.000000 0.392245 0.603844
-0.964858 0.977591 -0.646531 -0.604602 0.796503 0.000000 0.392245 0.666667
0.546141 0.623062 -1.000000 0.000000 0.000000 -1.000000 0.257690 0.396156
0.546141 0.977591 -0.978515 0.000000 0.698111 -0.715964 0.257690 0.333333
0.960166 0.623062 -0.978515 0.562609 0.000000 -0.826685 0.333333 0.396156
-0.964858 -0.992485 -0.646531 -0.315287 -0.948973 0.000000 0.000000 0.725578
0.546141 1.000000 -0.646531 0.000000 1.000000 0.000000 0.742310 0.058911
0.960166 0.977591 -0.646531 0.573382 0.819269 0.000000 0.666667 0.058911
0.546141 1.000000 0.618835 0.000000 1.000000 0.000000 0.742310 0.269806
0.960166 0.977591 0.618835 0.573382 0.819269 0.000000 0.666667 0.269806
-0.964858 -0.992485 0.618835 -0.315287 -0.948973 0.000000 0.000000 0.936472
-1.000000 0.623062 0.618835 -1.000000 0.000000 0.000000 0.603139 0.603844
-0.964858 0.977591 0.618835 -0.604602 0.796503 0.000000 0.603139 0.666667
0.960166 0.977591 -0.646531 0.573382 0.819269 0.000000 0.333333 0.274422
1.000000 0.623062 -0.646531 1.000000 0.000000 0.000000 0.396156 0.274422
-0.964858 0.623062 0.974558 -0.635029 0.000000 0.772485 0.666667 0.603844
0.546141 0.977591 0.974558 0.000000 0.733512 0.679647 0.742310 0.333333
-0.578981 0.977591 0.974558 0.000000 0.733512 0.679647 0.929830 0.333333
-0.578981 1.000000 0.618835 0.000000 1.000000 0.000000 0.929830 0.269806
0.546141 -0.992485 0.974558 0.000000 -0.916471 0.400067 0.257690 1.000000
0.960166 -0.992485 0.618835 0.284890 -0.958525 0.000000 0.333333 0.936472
0.546141 -1.000000 -0.646531 0.000000 -1.000000 0.000000 0.257690 0.725578
0.960166 -0.992485 -0.646531 0.284890 -0.958525 0.000000 0.333333 0.725578
-0.578981 1.000000 -0.646531 0.000000 1.000000 0.000000 0.929830 0.058911
-0.578981 0.977591 -0.978515 0.000000 0.698111 -0.715964 0.070170 0.333333
0.546141 0.623062 1.000000 0.000000 0.000000 1.000000 0.075643 0.062823
-0.964858 0.623062 -0.978515 -0.594226 0.000000 -0.804254 0.000000 0.396156
-0.964858 0.977591 -0.646531 -0.604602 0.796503 0.000000 1.000000 0.058911
-0.964858 0.977591 0.618835 -0.604602 0.796503 0.000000 1.000000 0.269806
-0.578981 -0.727320 1.000000 0.000000 0.000000 1.000000 0.263164 0.287887
-0.964858 -0.727320 -0.978515 -0.594226 0.000000 -0.804254 0.000000 0.621220
-0.578981 -0.727320 -1.000000 0.000000 0.000000 -1.000000 0.070170 0.621220
0.960166 -0.727320 0.974558 0.604999 0.000000 0.796197 0.000000 0.287887
0.546141 -0.727320 -1.000000 0.000000 0.000000 -1.000000 0.257690 0.621220
1.000000 -0.727320 -0.646531 1.000000 0.000000 0.000000 0.621220 0.274422
-0.964858 -0.727320 0.974558 -0.635029 0.000000 0.772485 0.666667 0.378780
-1.000000 -0.727320 0.618835 -1.000000 0.000000 0.000000 0.603139 0.378780
-1.000000 -0.727320 -0.646531 -1.000000 0.000000 0.000000 0.392245 0.378780
0.960166 -0.727320 -0.978515 0.562609 0.000000 -0.826685 0.333333 0.621220
-0.964858 -0.727320 0.974558 -0.635029 0.000000 0.772485 0.333333 0.287887
0.960166 -0.727320 0.974558 0.604999 0.000000 0.796197 0.621220 0.000000
0.960166 -0.992485 0.618835 0.284890 -0.958525 0.000000 0.666667 0.063528
0.929185 -0.986640 0.954770 0.161046 -0.931059 0.327372 0.666667 0.000000
-0.964858 -0.992485 -0.646531 -0.315287 -0.948973 0.000000 0.392245 0.333333
-0.937525 -0.986640 -0.961804 -0.176855 -0.910367 -0.374065 0.333333 0.333333
-0.964858 -0.992485 0.618835 -0.315287 -0.948973 0.000000 0.603139 0.333333
0.929185 -0.986640 -0.961804 0.152562 -0.913236 -0.377758 0.666667 0.333333
0.960166 -0.992485 -0.646531 0.284890 -0.958525 0.000000 0.666667 0.274422
-0.937525 -0.986640 0.954770 -0.186193 -0.927732 0.323435 0.666667 0.333333
3 0 1 2
3 1 3 2
3 3 4 2
3 4 0 2
3 5 6 7
3 5 8 9
3 5 10 11
3 11 12 5
3 13 14 15
3 14 16 15
3 15 17 18
3 15 19 13
3 20 21 22
3 21 23 22
3 22 24 25
3 25 20 22
3 26 27 28
3 27 29 28
3 28 30 31
3 28 32 26
3 33 34 35
3 34 36 35
3 35 37 38
3 35 39 33
3 40 41 42
3 41 43 42
3 43 34 42
3 34 40 42
3 44 45 46
3 46 47 44
3 47 27 44
3 44 48 49
3 50 51 52
3 51 53 52
3 53 14 52
3 14 50 52
3 54 55 56
3 56 57 54
3 57 58 54
3 58 59 54
3 60 61 62
3 62 63 64
3 64 51 62
3 51 60 62
3 65 66 67
3 65 68 69
3 69 46 65
3 65 45 70
3 71 72 73
3 73 74 75
3 75 41 73
3 41 71 73
3 76 58 77
3 58 78 77
3 78 1 77
3 1 76 77
3 79 80 81
3 80 71 81
3 71 82 81
3 82 79 81
3 83 84 85
3 85 86 83
3 83 87 88
3 88 89 83
3 90 88 91
3 88 92 91
3 92 93 91
3 93 90 91
3 94 82 95
3 82 40 95
3 40 96 95
3 96 94 95
3 97 96 98
3 96 33 98
3 33 99 98
3 99 97 98
3 100 93 101
3 93 102 101
3 101 103 104
3 101 105 100
3 106 107 108
3 107 109 108
3 109 21 108
3 21 106 108
3 110 111 112
3 110 113 114
3 110 115 116
3 116 117 110
3 118 119 120
3 120 121 122
3 122 107 120
3 107 118 120
3 123 124 125
3 124 97 125
3 125 126 127
3 125 128 123
3 129 130 131
3 130 94 131
3 94 124 131
3 124 129 131
3 132 133 134
3 134 79 132
3 79 130 132
3 130 135 132
3 86 136 137
3 136 70 137
3 137 45 138
3 137 87 86
3 92 138 139
3 138 49 139
3 49 140 139
3 140 92 139
3 102 140 141
3 140 26 141
3 26 142 141
3 142 102 141
3 143 116 144
3 116 145 144
3 145 7 144
3 7 143 144
3 146 147 148
3 147 143 148
3 143 149 148
3 149 146 148
3 150 151 152
3 151 118 152
3 152 153 154
3 154 150 152
3 155 156 157
3 156 117 157
3 117 147 157
3 157 158 155
3 159 154 160
3 154 106 160
3 106 161 160
3 161 159 160
3 162 163 164
3 163 76 164
3 76 165 164
3 165 162 164
3 166 167 168
3 167 60 168
3 60 169 168
3 169 166 168
3 170 171 172
3 170 55 59
3 59 163 170
3 163 173 170
3 174 169 175
3 169 50 175
3 50 176 175
3 176 174 175
3 177 161 178
3 161 20 178
3 20 179 178
3 179 177 178
3 180 176 181
3 176 13 181
3 13 182 181
3 182 180 181
3 183 149 184
3 149 12 184
3 12 185 184
3 185 183 184
3 186 187 165
3 165 0 186
3 0 188 186
3 188 189 186
3 190 191 192
3 192 187 189
3 189 193 192
3 193 190 192
3 194 195 196
3 196 183 194
3 183 197 194
3 194 198 199
3 200 201 202
3 201 180 202
3 202 203 204
3 204 200 202
3 104 205 206
3 205 177 206
3 177 207 206
3 206 105 104
3 208 209 210
3 209 174 210
3 174 201 210
3 201 208 210
3 211 212 213
3 213 171 173
3 173 214 213
3 214 211 213
3 215 216 217
3 216 166 217
3 166 209 217
3 209 215 217
3 218 214 219
3 214 162 219
3 162 191 219
3 191 218 219
3 142 220 221
3 220 159 221
3 159 205 221
3 205 142 221
3 222 223 224
3 224 155 222
3 155 225 222
3 222 226 227
3 228 30 229
3 229 150 228
3 150 220 228
3 220 31 228
3 230 225 231
3 225 146 231
3 146 196 231
3 196 230 231
3 0 232 1
3 1 233 3
3 3 234 4
3 4 235 0
3 5 12 6
3 5 7 8
3 5 9 10
3 11 236 12
3 13 237 14
3 14 238 16
3 15 16 17
3 15 18 19
3 20 239 21
3 21 240 23
3 22 23 24
3 25 241 20
3 26 48 27
3 27 242 29
3 28 29 30
3 28 31 32
3 33 243 34
3 34 244 36
3 35 36 37
3 35 38 39
3 40 245 41
3 41 246 43
3 43 244 34
3 34 243 40
3 44 49 45
3 46 247 47
3 47 242 27
3 44 27 48
3 50 248 51
3 51 249 53
3 53 238 14
3 14 237 50
3 54 59 55
3 56 24 57
3 57 250 58
3 58 251 59
3 60 252 61
3 62 61 63
3 64 249 51
3 51 248 60
3 65 70 66
3 65 67 68
3 69 247 46
3 65 46 45
3 71 253 72
3 73 72 74
3 75 246 41
3 41 245 71
3 76 251 58
3 58 250 78
3 78 233 1
3 1 232 76
3 79 254 80
3 80 253 71
3 71 245 82
3 82 255 79
3 83 89 84
3 85 256 86
3 83 86 87
3 88 257 89
3 90 257 88
3 88 87 92
3 92 258 93
3 93 259 90
3 94 255 82
3 82 245 40
3 40 243 96
3 96 260 94
3 97 260 96
3 96 243 33
3 33 39 99
3 99 126 97
3 100 259 93
3 93 258 102
3 101 102 103
3 101 104 105
3 106 153 107
3 107 261 109
3 109 240 21
3 21 239 106
3 110 117 111
3 110 112 113
3 110 114 115
3 116 262 117
3 118 263 119
3 120 119 121
3 122 261 107
3 107 153 118
3 123 264 124
3 124 260 97
3 125 97 126
3 125 127 128
3 129 265 130
3 130 255 94
3 94 260 124
3 124 264 129
3 132 135 133
3 134 254 79
3 79 255 130
3 130 265 135
3 86 256 136
3 136 66 70
3 137 70 45
3 137 138 87
3 92 87 138
3 138 45 49
3 49 48 140
3 140 258 92
3 102 258 140
3 140 48 26
3 26 32 142
3 142 103 102
3 143 262 116
3 116 115 145
3 145 8 7
3 7 6 143
3 146 158 147
3 147 262 143
3 143 6 149
3 149 266 146
3 150 267 151
3 151 263 118
3 152 118 153
3 154 268 150
3 155 269 156
3 156 111 117
3 117 262 147
3 157 147 158
3 159 268 154
3 154 153 106
3 106 239 161
3 161 270 159
3 162 271 163
3 163 251 76
3 76 232 165
3 165 187 162
3 166 272 167
3 167 252 60
3 60 248 169
3 169 273 166
3 170 173 171
3 170 172 55
3 59 251 163
3 163 271 173
3 174 273 169
3 169 248 50
3 50 237 176
3 176 274 174
3 177 270 161
3 161 239 20
3 20 241 179
3 179 275 177
3 180 274 176
3 176 237 13
3 13 19 182
3 182 203 180
3 183 266 149
3 149 6 12
3 12 236 185
3 185 276 183
3 186 189 187
3 165 232 0
3 0 235 188
3 188 277 189
3 190 278 191
3 192 191 187
3 189 277 193
3 193 279 190
3 194 199 195
3 196 266 183
3 183 276 197
3 194 197 198
3 200 280 201
3 201 274 180
3 202 180 203
3 204 281 200
3 104 103 205
3 205 270 177
3 177 275 207
3 206 207 105
3 208 282 209
3 209 273 174
3 174 274 201
3 201 280 208
3 211 283 212
3 213 212 171
3 173 271 214
3 214 284 211
3 215 285 216
3 216 272 166
3 166 273 209
3 209 282 215
3 218 284 214
3 214 271 162
3 162 187 191
3 191 278 218
3 142 32 220
3 220 268 159
3 159 270 205
3 205 103 142
3 222 227 223
3 224 269 155
3 155 158 225
3 222 225 226
3 228 31 30
3 229 267 150
3 150 268 220
3 220 32 31
3 230 226 225
3 225 158 146
3 146 266 196
3 196 195 230
